<svg width="80" height="89" viewBox="0 0 80 89" fill="none" xmlns="http://www.w3.org/2000/svg">
<path d="M80 30.6682C79.9537 30.2622 79.8643 29.8623 79.7333 29.475V29.0773C79.5196 28.623 79.2346 28.2053 78.8889 27.84L52.2222 1.32571C51.8548 0.981984 51.4348 0.698567 50.9778 0.486095C50.8451 0.467359 50.7104 0.467359 50.5778 0.486095C50.1263 0.228647 49.6277 0.0633877 49.1111 0H31.1111C27.5749 0 24.1835 1.39673 21.683 3.88293C19.1825 6.36912 17.7778 9.74113 17.7778 13.2571V17.6762H13.3333C9.79711 17.6762 6.40573 19.0729 3.90524 21.5591C1.40476 24.0453 0 27.4173 0 30.9333V75.1238C0 78.6398 1.40476 82.0118 3.90524 84.498C6.40573 86.9842 9.79711 88.3809 13.3333 88.381H48.8889C52.4251 88.3809 55.8165 86.9842 58.317 84.498C60.8175 82.0118 62.2222 78.6398 62.2222 75.1238V70.7048H66.6667C70.2029 70.7048 73.5943 69.308 76.0948 66.8218C78.5952 64.3356 80 60.9636 80 57.4476V30.9333C80 30.9333 80 30.9333 80 30.6682ZM53.3333 15.069L64.8445 26.5143H57.7778C56.599 26.5143 55.4686 26.0487 54.6351 25.22C53.8016 24.3912 53.3333 23.2672 53.3333 22.0952V15.069ZM53.3333 75.1238C53.3333 76.2958 52.8651 77.4198 52.0316 78.2486C51.1981 79.0773 50.0676 79.5429 48.8889 79.5429H13.3333C12.1546 79.5429 11.0241 79.0773 10.1906 78.2486C9.35714 77.4198 8.88889 76.2958 8.88889 75.1238V30.9333C8.88889 29.7613 9.35714 28.6373 10.1906 27.8086C11.0241 26.9799 12.1546 26.5143 13.3333 26.5143H17.7778V57.4476C17.7778 60.9636 19.1825 64.3356 21.683 66.8218C24.1835 69.308 27.5749 70.7048 31.1111 70.7048H53.3333V75.1238ZM71.1111 57.4476C71.1111 58.6196 70.6429 59.7436 69.8094 60.5724C68.9759 61.4011 67.8454 61.8667 66.6667 61.8667H31.1111C29.9324 61.8667 28.8019 61.4011 27.9684 60.5724C27.1349 59.7436 26.6667 58.6196 26.6667 57.4476V13.2571C26.6667 12.0851 27.1349 10.9611 27.9684 10.1324C28.8019 9.30367 29.9324 8.83809 31.1111 8.83809H44.4444V22.0952C44.4444 25.6112 45.8492 28.9833 48.3497 31.4695C50.8502 33.9557 54.2416 35.3524 57.7778 35.3524H71.1111V57.4476Z" fill="white"/>
</svg>
